# AST/ASF file generated using VICON BodyLanguage
# -----------------------------------------------
:version 1.10
:name VICON
:units
  mass 1.0
  length 0.45
  angle deg
:documentation
   .ast/.asf automatically generated from VICON data using
   VICON BodyBuilder and BodyLanguage model FoxedUp or BRILLIANT.MOD
:root
   order TX TY TZ RX RY RZ
   axis XYZ
   position 0 0 0  
   orientation 0 0 0 
:bonedata
  begin
     id 1 
     name lhipjoint
     direction 0.547975 -0.797114 0.253638 
     length 2.36201 
     axis 0 0 0  XYZ
  end
  begin
     id 2 
     name lfemur
     direction 0.34202 -0.939693 0  
     length 7.69075  
     axis 0 0 20  XYZ
    dof rx ry rz
    limits (-160.0 20.0)
           (-70.0 70.0)
           (-60.0 70.0)
  end
  begin
     id 3 
     name ltibia
     direction 0.34202 -0.939693 0   
     length 7.91399   
     axis 0 0 20   XYZ
    dof rx
    limits (-10.0 170.0)
  end
  begin
     id 4 
     name lfoot
     direction 0.0705293 -0.193778 0.978507   
     length 2.13618   
     axis -90 7.62852e-016 20   XYZ
    dof rx rz
    limits (-45.0 90.0)
           (-70.0 20.0)
  end
  begin
     id 5 
     name ltoes
     direction 1.53592e-011 -4.21925e-011 1   
     length 1.07518   
     axis -90 7.62852e-016 20   XYZ
    dof rx
    limits (-90.0 20.0)
  end
  begin
     id 6 
     name rhipjoint
     direction -0.57 -0.782963 0.249136   
     length 2.4047  
     axis 0 0 0  XYZ 
  end
  begin
     id 7 
     name rfemur
     direction -0.34202 -0.939693 0   
     length 7.51486   
     axis 0 0 -20   XYZ
    dof rx ry rz
    limits (-160.0 20.0)
           (-70.0 70.0)
           (-70.0 60.0)
  end
  begin
     id 8 
     name rtibia
     direction -0.34202 -0.939693 0   
     length 8.08317   
     axis 0 0 -20   XYZ
    dof rx
    limits (-10.0 170.0)
 end
 begin
     id 9 
     name rfoot
     direction -0.104954 -0.281256 0.953876   
     length 2.30343  
     axis -90 -7.62852e-016 -20   XYZ
    dof rx rz
    limits (-45.0 90.0)
           (-20.0 70.0)
  end
  begin
     id 10 
     name rtoes
     direction -1.53556e-011 -4.21922e-011 1   
     length 1.14803   
     axis -90 -7.62852e-016 -20   XYZ
    dof rx
    limits (-90.0 20.0)
  end
  begin
     id 11 
     name lowerback
     direction -0.0152855 0.99353 -0.11254   
     length 2.05311   
     axis 0 0 0   XYZ
    dof rx ry rz
    limits (-20.0 45.0)
           (-30.0 30.0)
           (-30.0 30.0)
  end
  begin
     id 12 
     name upperback
     direction -0.00157509 0.999443 -0.033332   
     length 2.06353   
     axis 0 0 0   XYZ
    dof rx ry rz
    limits (-20.0 45.0)
           (-30.0 30.0)
           (-30.0 30.0)
  end
  begin
     id 13 
     name thorax
     direction 0.00577788 0.999804 0.0189484   
     length 2.08472   
     axis 0 0 0   XYZ
    dof rx ry rz
    limits (-20.0 45.0)
           (-30.0 30.0)
           (-30.0 30.0)
  end
  begin
     id 14 
     name lowerneck
     direction -1.09301e-005 0.994719 0.10264   
     length 1.76249   
     axis 0 0 0   XYZ
    dof rx ry rz
    limits (-20.0 45.0)
           (-30.0 30.0)
           (-30.0 30.0)
  end
  begin
     id 15 
     name upperneck
     direction 0.0495018 0.988526 -0.142706   
     length 1.77897   
     axis 0 0 0   XYZ
    dof rx ry rz
    limits (-20.0 45.0)
           (-30.0 30.0)
           (-30.0 30.0)
  end
  begin
     id 16
     name head
     direction 0.0142736 0.998114 -0.0597101  
     length 1.78934  
     axis 0 0 0   XYZ
    dof rx ry rz
    limits (-20.0 45.0)
           (-30.0 30.0)
           (-30.0 30.0)
  end
  begin
     id 17 
     name lclavicle
     direction 0.918111 0.396107 -0.0130883  
     length 3.37276  
     axis 0 0 0   XYZ
    dof ry rz
    limits (-20.0 10.0)
           (0.0 20.0)
  end
  begin
     id 18 
     name lhumerus
     direction 1 -4.48975e-011 -3.26108e-027   
     length 5.34298   
     axis 180 -30 -90   XYZ
    dof rx ry rz
    limits (-60.0 90.0)
           (-90.0 90.0)
           (-90.0 90.0)
  end
  begin
     id 19
     name lradius
     direction 1 -4.48964e-011 -8.84413e-028   
     length 3.67262   
     axis 180 -30 -90   XYZ
    dof rx
    limits (-10.0 170.0)
  end
  begin
     id 20
     name lwrist
     direction 1 -4.48991e-011 -1.24264e-027   
     length 1.83631   
     axis -2.17013e-015 90 90   XYZ
    dof ry
    limits (-180.0 0.0)
 end
  begin
     id 21 
     name lhand
     direction 1 -4.48855e-011 -2.48528e-027   
     length 0.599298   
     axis 1.58582e-015 90 90   XYZ
    dof rx rz
    limits (-90.0 90.0)
           (-45.0 45.0)
  end
  begin
     id 22 
     name lfingers
     direction 1 -4.48811e-011 -4.97056e-027   
     length 0.48317   
     axis 3.17164e-015 90 90   XYZ
    dof rx
    limits (0.0 90.0)
  end
  begin
     id 23
     name lthumb
     direction 0.707107 -6.34882e-011 0.707107   
     length 0.693738   
     axis -90 45 2.85299e-015   XYZ
    dof rx rz
    limits (-45.0 45.0)
           (-45.0 45.0)
  end
  begin
     id 24 
     name rclavicle
     direction -0.920511 0.384752 -0.0680135   
     length 3.43787  
     axis 0 0 0   XYZ 
    dof ry rz
    limits (-10.0 20.0)
           (-20.0 0.0)
  end
  begin
     id 25 
     name rhumerus
     direction -0.999976 -0.00330524 0.00603274  
     length 5.5498   
     axis 180 30 90   XYZ
    dof rx ry rz
    limits (-90.0 60.0)
           (-90.0 90.0)
           (-90.0 90.0)
  end
  begin
     id 26 
     name rradius
     direction -1 -4.48967e-011 8.62438e-027   
     length 3.69401   
     axis 180 30 90   XYZ
    dof rx
    limits (-10.0 170.0)
  end
  begin
     id 27 
     name rwrist
     direction -1 -4.4897e-011 9.54866e-027   
     length 1.84701   
     axis -7.69462e-015 -90 -90   XYZ
    dof ry
    limits (-180.0 0.0)
  end
  begin
     id 28
     name rhand
     direction -1 -4.48982e-011 1.90973e-026   
     length 0.638113   
     axis -1.21857e-014 -90 -90   XYZ
    dof rx rz
    limits (-90.0 90.0)
           (-45.0 45.0)
  end
  begin
     id 29
     name rfingers
     direction -1 -4.48936e-011 3.81946e-026   
     length 0.514463   
     axis -2.43714e-014 -90 -90   XYZ
    dof rx
    limits (0.0 90.0)
  end
  begin
     id 30
     name rthumb
     direction -0.707107 -6.34942e-011 0.707107   
     length 0.738669   
     axis -90 -45 -2.85299e-015   XYZ
    dof rx rz
    limits (-45.0 45.0)
           (-45.0 45.0)
  end
:hierarchy
  begin
    root lhipjoint rhipjoint lowerback
    lhipjoint lfemur
    lfemur ltibia
    ltibia lfoot
    lfoot ltoes
    rhipjoint rfemur
    rfemur rtibia
    rtibia rfoot
    rfoot rtoes
    lowerback upperback
    upperback thorax
    thorax lowerneck lclavicle rclavicle
    lowerneck upperneck
    upperneck head
    lclavicle lhumerus
    lhumerus lradius
    lradius lwrist
    lwrist lhand lthumb
    lhand lfingers
    rclavicle rhumerus
    rhumerus rradius
    rradius rwrist
    rwrist rhand rthumb
    rhand rfingers
  end

#!OML:ASF F:\twosubjects\two\Thursday\Session 1\Rory.ASF
:FULLY-SPECIFIED
:DEGREES
164
root 7.3007 11.1642 10.777 167.299 -15.2774 190.336
lowerback 45.2548 13.5691 -17.7205
upperback 15.7173 -0.102112 -7.25107
thorax -1.64482 -3.60084 0.112459
lowerneck -7.28477 -18.5849 -17.637
upperneck -14.4321 -25.8389 39.3129
head 5.5416 -15.0413 11.8775
rclavicle -5.40694e-014 4.77083e-014
rhumerus -2.91023 -7.93619 -60.8733
rradius 142.67
rwrist 13.6013
rhand -40.1229 51.1853
rfingers 7.12502
rthumb -13.0862 21.6159
lclavicle -5.40694e-014 4.77083e-014
lhumerus 59.3946 -1.90735 20.1404
lradius 111.211
lwrist 3.45141
lhand -12.0582 17.4428
lfingers 7.12502
lthumb 14.0009 46.9513
rfemur -58.1229 -14.0596 -7.42977
rtibia 95.4006
rfoot -2.14054 5.66218
rtoes -25.2069
lfemur -74.4287 11.4524 7.32427
ltibia 82.3291
lfoot 8.20735 -4.82674
ltoes -9.69079
165
root 7.23516 11.1842 10.7523 166.896 -15.5877 191.123
lowerback 45.6526 13.7057 -17.5689
upperback 15.7239 -0.0230026 -7.28941
thorax -1.71264 -3.55755 -0.0426716
lowerneck -8.01511 -18.5615 -17.7389
upperneck -13.3802 -25.9951 39.7313
head 6.13279 -14.948 11.8848
rclavicle -1.11319e-013 3.18055e-015
rhumerus -4.39143 -8.66112 -60.5911
rradius 143.084
rwrist 14.3691
rhand -39.3439 52.1218
rfingers 7.12502
rthumb -12.3353 22.5056
lclavicle -1.11319e-013 3.18055e-015
lhumerus 58.8695 -1.90136 20.2082
lradius 112.573
lwrist 4.80091
lhand -10.7761 18.2558
lfingers 7.12502
lthumb 15.2361 47.6747
rfemur -57.2049 -13.5693 -7.62046
rtibia 95.0134
rfoot -0.924718 6.37924
rtoes -20.5316
lfemur -74.5153 11.5639 7.33142
ltibia 82.5287
lfoot 7.65441 -6.04713
ltoes -14.8441
166
root 7.18085 11.1998 10.7261 166.905 -15.909 191.545
lowerback 45.731 13.9383 -17.8708
upperback 15.5199 0.100274 -7.4573
thorax -1.92811 -3.4564 -0.155558
lowerneck -6.88083 -18.4742 -17.2328
upperneck -13.496 -26.0097 40.1049
head 5.92521 -15.1189 12.0605
rclavicle -9.22361e-014 2.8625e-014
rhumerus -6.42283 -9.5041 -60.4868
rradius 143.944
rwrist 14.2163
rhand -37.9243 52.6647
rfingers 7.12502
rthumb -10.9662 22.9711
lclavicle -9.22361e-014 2.8625e-014
lhumerus 58.2074 -2.4336 20.4117
lradius 113.537
lwrist 5.49647
lhand -9.85975 18.2841
lfingers 7.12502
lthumb 16.1187 47.6338
rfemur -57.0198 -13.3664 -7.85664
rtibia 94.7336
rfoot -0.312874 7.40967
rtoes -23.0559
lfemur -74.989 11.8714 6.98396
ltibia 82.7627
lfoot 7.32841 -6.83732
ltoes -16.5607
167
root 7.12991 11.2134 10.7026 167.013 -16.146 192.247
lowerback 45.4491 14.0823 -17.9233
upperback 15.2863 0.423507 -7.61552
thorax -2.15357 -3.2183 -0.399136
lowerneck -4.28179 -18.2369 -16.0552
upperneck -14.5205 -25.6756 40.2962
head 4.95726 -15.3771 12.3965
rclavicle 1.04958e-013 1.90833e-013
rhumerus -8.77212 -10.5249 -60.2914
rradius 144.622
rwrist 14.0887
rhand -37.2341 53.0096
rfingers 7.12502
rthumb -10.3005 23.2819
lclavicle 1.04958e-013 1.90833e-013
lhumerus 57.909 -3.2083 20.2214
lradius 114.303
lwrist 5.68888
lhand -10.236 17.8792
lfingers 7.12502
lthumb 15.7564 47.2579
rfemur -57.1613 -13.2469 -7.63314
rtibia 94.4429
rfoot -0.511669 8.7363
rtoes -29.7694
lfemur -75.6532 12.2022 7.04204
ltibia 83.0553
lfoot 7.06265 -7.14501
ltoes -16.4887
168
root 7.07063 11.2285 10.683 167.172 -16.5207 192.388
lowerback 45.3746 14.3865 -18.3852
upperback 15.2345 0.588668 -7.67045
thorax -2.16447 -3.14674 -0.35007
lowerneck -1.97181 -17.8628 -14.5485
upperneck -15.964 -25.024 40.4884
head 3.78206 -15.5527 12.8005
rclavicle -5.08889e-014 9.22361e-014
rhumerus -10.242 -11.647 -59.892
rradius 144.859
rwrist 13.8427
rhand -36.822 53.3139
rfingers 7.12502
rthumb -9.9029 23.5668
lclavicle -5.08889e-014 9.22361e-014
lhumerus 57.5346 -3.37638 19.9583
lradius 114.658
lwrist 5.65132
lhand -10.3167 17.4641
lfingers 7.12502
lthumb 15.6787 46.8489
rfemur -56.9936 -13.2714 -8.13882
rtibia 93.9792
rfoot -1.10132 9.95142
rtoes -33.4145
lfemur -76.1935 12.2043 6.5668
ltibia 83.3928
lfoot 6.92667 -7.05573
ltoes -14.8764
169
root 7.01313 11.2436 10.6648 167.308 -16.976 191.845
lowerback 45.7253 14.7796 -19.6854
upperback 15.2192 0.2196 -7.60955
thorax -2.09091 -3.42504 0.286908
lowerneck -3.37593 -18.1391 -15.3519
upperneck -14.6086 -25.6413 40.6007
head 4.72725 -15.5457 12.5303
rclavicle -8.26944e-014 -1.7175e-013
rhumerus -10.4828 -12.1715 -59.5508
rradius 144.864
rwrist 13.3563
rhand -36.2985 53.471
rfingers 7.12502
rthumb -9.39783 23.7005
lclavicle -8.26944e-014 -1.7175e-013
lhumerus 56.2705 -2.79895 20.1678
lradius 114.981
lwrist 5.26523
lhand -9.56059 17.5519
lfingers 7.12502
lthumb 16.4068 46.8781
rfemur -56.5002 -13.2188 -9.34387
rtibia 93.3862
rfoot -1.73664 10.4573
rtoes -32.9396
lfemur -76.4678 12.0805 5.39365
ltibia 83.765
lfoot 6.87398 -6.89617
ltoes -11.796
170
root 6.96535 11.2529 10.6474 167.118 -17.1357 192.436
lowerback 45.8336 15.1553 -19.6321
upperback 15.1459 0.658567 -7.62356
thorax -2.21302 -3.19739 0.0739813
lowerneck -3.48712 -18.4172 -15.2042
upperneck -14.1223 -26.0969 40.7127
head 5.01075 -15.698 12.3768
rclavicle 3.18055e-014 9.54166e-014
rhumerus -12.4709 -13.8964 -59.0907
rradius 145.246
rwrist 12.8975
rhand -35.9385 53.6961
rfingers 7.12502
rthumb -9.05046 23.9102
lclavicle 3.18055e-014 9.54166e-014
lhumerus 56.4359 -3.2568 20.3717
lradius 115.262
lwrist 5.58117
lhand -8.97786 18.0374
lfingers 7.12502
lthumb 16.9677 47.3163
rfemur -56.0621 -12.9035 -9.02871
rtibia 92.7003
rfoot -1.87171 9.71009
rtoes -29.692
lfemur -76.8406 12.4112 5.48575
ltibia 84.2186
lfoot 6.949 -7.07736
ltoes -6.92259
171
root 6.91459 11.2605 10.6349 166.975 -17.2247 193.593
lowerback 45.4257 14.9954 -19.3743
upperback 15.3244 0.843683 -7.35496
thorax -1.99045 -3.11202 0.23012
lowerneck -4.52831 -18.7436 -16.466
upperneck -13.2776 -26.6634 41.048
head 5.87328 -15.7313 12.3197
rclavicle -2.8625e-014 -7.79236e-014
rhumerus -13.1813 -14.844 -58.6859
rradius 145.414
rwrist 12.5707
rhand -35.7367 54.3109
rfingers 7.12502
rthumb -8.85577 24.5167
lclavicle -2.8625e-014 -7.79236e-014
lhumerus 55.4885 -2.92886 20.8157
lradius 115.237
lwrist 5.78534
lhand -9.45534 18.0598
lfingers 7.12502
lthumb 16.5081 47.3775
rfemur -55.7327 -12.731 -7.93677
rtibia 91.7973
rfoot -3.54926 8.75522
rtoes -31.8411
lfemur -77.508 12.844 6.32432
ltibia 84.7247
lfoot 7.32359 -7.3604
ltoes 0.654095
172
root 6.8532 11.2818 10.6357 167.057 -17.4849 194.158
lowerback 45.2973 15.0004 -19.3094
upperback 15.1831 1.0127 -7.37464
thorax -2.14111 -2.96886 0.139345
lowerneck -4.26107 -19.0131 -16.9622
upperneck -12.8741 -27.0691 41.1191
head 6.1556 -15.858 12.2958
rclavicle 2.8625e-014 3.02153e-014
rhumerus -14.7788 -16.1917 -58.1851
rradius 145.598
rwrist 12.0885
rhand -35.5097 54.1444
rfingers 7.12502
rthumb -8.63663 24.3411
lclavicle 2.8625e-014 3.02153e-014
lhumerus 54.9204 -3.21224 21.1666
lradius 115.488
lwrist 5.81841
lhand -9.22499 18.0651
lfingers 7.12502
lthumb 16.7299 47.3643
rfemur -55.2621 -12.6813 -7.52847
rtibia 90.706
rfoot -3.77943 6.69441
rtoes -26.3859
lfemur -78.1301 13.0222 6.47529
ltibia 85.0251
lfoot 7.80221 -7.40493
ltoes 8.00804
173
root 6.79282 11.3089 10.6442 167.066 -17.7592 194.396
lowerback 45.6636 14.9577 -19.226
upperback 15.0907 0.817942 -7.67451
thorax -2.29215 -3.02203 -0.164226
lowerneck -2.84538 -18.557 -15.2859
upperneck -13.6598 -26.3312 40.7381
head 5.11607 -15.8001 12.3909
rclavicle 1.01778e-013 -3.65764e-014
rhumerus -15.6964 -17.6081 -57.7858
rradius 145.474
rwrist 11.2668
rhand -36.0203 52.7547
rfingers 7.12502
rthumb -9.12942 22.9723
lclavicle 1.01778e-013 -3.65764e-014
lhumerus 54.3677 -3.00839 21.3256
lradius 115.895
lwrist 6.0474
lhand -8.16247 18.3276
lfingers 7.12502
lthumb 17.7525 47.5372
rfemur -54.7499 -12.5239 -7.43372
rtibia 89.59
rfoot -4.57063 4.32961
rtoes -23.8228
lfemur -78.4635 13.0728 6.34163
ltibia 85.2415
lfoot 8.18301 -6.98228
ltoes 15.5723
174
root 6.73874 11.2914 10.626 167.33 -18.095 194.31
lowerback 45.1271 15.3019 -20.0164
upperback 15.4375 1.02742 -7.37452
thorax -1.77018 -3.05374 0.3758
lowerneck -4.89395 -19.2596 -16.7259
upperneck -12.2833 -27.4234 40.7717
head 6.41198 -15.8918 11.9424
rclavicle -1.49486e-013 -2.16278e-013
rhumerus -15.8836 -19.1713 -56.7469
rradius 145.256
rwrist 10.3974
rhand -36.9836 51.855
rfingers 7.12502
rthumb -10.0588 22.1154
lclavicle -1.49486e-013 -2.16278e-013
lhumerus 54.0529 -2.35251 22.0664
lradius 116.038
lwrist 5.69257
lhand -7.80029 18.6744
lfingers 7.12502
lthumb 18.101 47.8521
rfemur -54.6046 -12.7349 -7.62212
rtibia 88.5891
rfoot -5.51559 1.61589
rtoes -24.5219
lfemur -79.1586 13.3476 4.65039
ltibia 85.0118
lfoot 6.96686 -8.54427
ltoes -4.2814
